<svg width="200" height="48" viewBox="0 0 200 48" fill="none" xmlns="http://www.w3.org/2000/svg">
<path d="M0 12.8C0 8.31958 0 6.07937 0.871948 4.36808C1.63893 2.86278 2.86278 1.63893 4.36808 0.871948C6.07937 0 8.31958 0 12.8 0H186.239C190.719 0 192.96 0 194.671 0.871948C196.176 1.63893 197.4 2.86278 198.167 4.36808C199.039 6.07937 199.039 8.31958 199.039 12.8V35.2C199.039 39.6804 199.039 41.9206 198.167 43.6319C197.4 45.1372 196.176 46.3611 194.671 47.1281C192.96 48 190.719 48 186.239 48H12.8C8.31958 48 6.07937 48 4.36808 47.1281C2.86278 46.3611 1.63893 45.1372 0.871948 43.6319C0 41.9206 0 39.6804 0 35.2V12.8Z" fill="#0B4291"/>
</svg>
